<svg width="44" height="58" viewBox="0 0 44 58" fill="none" xmlns="http://www.w3.org/2000/svg">
<path d="M30.4814 44L30.9148 52.7889L22.0247 46.6109L13.0848 52.7948L13.5185 44H9.76393L9.11682 57.125H13.4167L22.0198 51.1742L30.583 57.125H34.8831L34.236 44H30.4814V44ZM40.6807 17.154L40.4236 11.5226L35.6757 8.4843L32.6368 3.73598L27.0054 3.47817L21.9999 0.885864L16.9945 3.47876L11.3631 3.73657L8.32417 8.4843L3.57631 11.5226L3.3192 17.154L0.726196 22.1595L3.3192 27.1652L3.57702 32.7964L8.32417 35.8347L11.3626 40.5831L16.994 40.8404L21.9999 43.4333L27.0054 40.8404L32.6368 40.5831L35.6753 35.8347L40.4235 32.7968L40.6807 27.1656L43.2737 22.16L40.6807 17.154ZM36.9722 26.1714L36.7656 30.6848L32.9599 33.1199L30.5247 36.9256L26.0113 37.1318L21.9999 39.2099L17.9881 37.1318L13.4747 36.9256L11.0395 33.1199L7.23432 30.6848L7.02819 26.1714L4.94917 22.1595L7.02772 18.1484L7.23432 13.6343L11.0395 11.1992L13.4747 7.39364L17.9881 7.18739L21.9999 5.10919L26.0117 7.18727L30.5252 7.39352L32.9604 11.1991L36.7656 13.6343L36.9717 18.1478L39.0507 22.1595L36.9722 26.1714Z" fill="#F68B1F"/>
</svg>
