<svg width="120" height="60" viewBox="0 0 120 60" fill="none" xmlns="http://www.w3.org/2000/svg">
<path d="M86.29 17.4C86.06 17.4 85.87 17.43 85.7 17.39C85.59 17.36 85.46 17.24 85.42 17.13C85.32 16.84 85.29 16.52 85.18 16.23C84.82 15.19 84.62 14.12 84.45 13.04C84.31 12.17 84.12 11.31 83.95 10.45C83.85 9.9 83.76 9.35 83.65 8.8C83.55 8.34 83.36 7.94 82.91 7.77C83.3 10.28 83.69 12.79 84.08 15.29C84.05 15.31 84.01 15.33 83.98 15.34C83.74 15.23 83.49 15.12 83.25 15C82.48 14.62 81.71 14.23 80.93 13.84C80.89 13.82 80.85 13.81 80.82 13.79C80.03 13.37 80.02 13.37 80.12 12.48C80.16 12.15 80.07 11.91 79.83 11.68C78.44 10.33 77.07 8.96 75.7 7.59C75.54 7.43 75.43 7.45 75.29 7.6C74.44 8.47 73.57 9.34 72.72 10.22C71.34 11.64 69.97 13.07 68.6 14.5C66.74 16.44 64.9 18.38 63.03 20.3C62.41 20.94 61.73 21.51 61.02 22.16C58.59 19.67 56.06 17.09 53.54 14.52C53.56 14.49 53.59 14.46 53.61 14.43C53.85 14.54 54.09 14.65 54.32 14.76C55.28 15.24 56.23 15.72 57.19 16.19C57.8 16.49 58.41 16.78 59.03 17.05C59.12 17.09 59.3 17.07 59.37 17.01C59.96 16.47 60.54 15.92 61.1 15.36C63.19 13.24 65.27 11.12 67.36 9C69.21 7.12 71.08 5.25 72.93 3.36C73.27 3.01 73.73 2.96 74.14 2.78C74.37 2.67 74.62 2.61 74.86 2.53C75.05 2.47 75.18 2.46 75.32 2.68C76.34 4.23 77.39 5.77 78.43 7.32C79.01 8.19 79.58 9.06 80.16 9.93C80.2 9.98 80.28 10 80.34 10.04C80.37 9.97 80.44 9.88 80.42 9.82C80.31 9.55 80.21 9.26 80.04 9.02C78.66 6.95 77.27 4.88 75.89 2.81C75.57 2.32 75.57 2.32 76.1 2.13C76.2 2.09 76.3 2.08 76.39 2.03C76.59 1.92 76.74 1.97 76.89 2.13C77.9 3.17 78.91 4.21 79.92 5.26C80.17 6 80.85 6.38 81.31 6.96C81.55 7.27 81.87 7.36 82.24 7.35C83.1 7.34 83.96 7.33 84.82 7.32C85.62 7.31 86.42 7.26 87.21 7.3C88.13 7.35 88.83 7.83 89.2 8.66C89.4 9.1 89.41 9.63 89.51 10.11C89.62 10.65 89.75 11.18 89.85 11.71C90.02 12.61 90.18 13.52 90.34 14.43C90.46 15.1 90.59 15.77 90.7 16.45C90.74 16.7 90.77 16.96 90.79 17.22C90.79 17.27 90.79 17.33 90.76 17.36C90.61 17.51 90.04 17.37 89.98 17.16C89.84 16.71 89.71 16.25 89.58 15.8C89.55 15.71 89.54 15.59 89.48 15.55C89.37 15.47 89.22 15.43 89.08 15.42C89.05 15.42 88.97 15.59 88.97 15.68C88.99 15.96 89.04 16.23 89.08 16.51C89.11 16.79 89.14 17.06 89.17 17.39C88.94 17.39 88.69 17.45 88.5 17.37C88.38 17.32 88.3 17.08 88.25 16.92C88.14 16.5 88.08 16.07 87.95 15.66C87.92 15.55 87.72 15.41 87.59 15.41C87.37 15.4 87.43 15.6 87.45 15.74C87.52 16.28 87.58 16.82 87.65 17.4C87.41 17.4 87.18 17.44 86.99 17.38C86.89 17.35 86.8 17.15 86.76 17.02C86.65 16.58 86.57 16.13 86.45 15.7C86.42 15.58 86.26 15.5 86.16 15.4C86.11 15.52 86 15.64 86.01 15.75C86.1 16.27 86.2 16.8 86.29 17.4ZM79.09 5.75C79.05 5.78 79.02 5.82 78.98 5.85C79.52 6.63 80.07 7.41 80.64 8.23C80.78 8.02 80.88 7.9 80.94 7.76C80.98 7.67 80.98 7.5 80.92 7.45C80.31 6.88 79.7 6.32 79.09 5.75Z" fill="#F58A1F"/>
<path d="M83.6 25.98C83.6 27.11 83.6 28.22 83.6 29.37C80.39 29.37 77.19 29.37 73.97 29.37C73.97 30.72 73.97 32.04 73.97 33.4C76.79 33.4 79.61 33.4 82.47 33.4C82.47 34.52 82.47 35.6 82.47 36.71C79.65 36.71 76.82 36.71 73.97 36.71C73.97 38.13 73.97 39.53 73.97 40.95C77.29 40.95 80.6 40.95 83.94 40.95C83.94 42.1 83.94 43.22 83.94 44.36C79.22 44.36 74.49 44.36 69.74 44.36C69.74 38.24 69.74 32.12 69.74 25.97C74.35 25.98 78.97 25.98 83.6 25.98Z" fill="#F58A1F"/>
<path d="M62.77 44.37C57.39 44.37 52.05 44.37 46.68 44.37C46.68 43.47 46.67 42.58 46.69 41.69C46.69 41.59 46.79 41.49 46.86 41.41C50.08 37.52 53.3 33.63 56.52 29.74C56.59 29.66 56.65 29.58 56.75 29.45C53.45 29.45 50.19 29.45 46.91 29.45C46.91 28.27 46.91 27.14 46.91 25.98C52.05 25.98 57.19 25.98 62.36 25.98C62.37 26.07 62.37 26.17 62.38 26.27C62.38 26.92 62.36 27.58 62.39 28.23C62.41 28.59 62.29 28.85 62.06 29.12C58.87 32.97 55.69 36.82 52.51 40.68C52.47 40.73 52.43 40.79 52.34 40.91C52.51 40.91 52.63 40.91 52.75 40.91C55.98 40.91 59.2 40.91 62.43 40.9C62.73 40.9 62.79 40.99 62.79 41.27C62.77 42.29 62.77 43.32 62.77 44.37Z" fill="#F58A1F"/>
<path d="M32.48 41.18C32.96 41.23 33.41 41.29 33.86 41.32C35.17 41.4 36.43 41.22 37.51 40.39C38.66 39.51 39.19 38.29 39.34 36.89C39.39 36.39 39.4 35.88 39.4 35.37C39.4 30.94 39.4 26.51 39.4 22.09C39.4 21.99 39.4 21.88 39.4 21.74C37.38 21.74 35.37 21.74 33.36 21.74C33.36 20.55 33.36 19.4 33.36 18.23C36.62 18.23 40.4 18.23 43.68 18.23C43.69 18.29 43.7 18.36 43.7 18.43C43.7 24.42 43.73 30.42 43.68 36.41C43.66 38.47 42.54 40.4 41.17 42C40.54 42.74 39.83 43.44 38.91 43.82C37.5 44.41 36.08 44.33 34.75 43.58C33.77 43.02 33.03 42.19 32.48 41.18Z" fill="#F58A1F"/>
<path d="M33.49 44.31C31.79 44.22 30.31 43.72 29.03 42.64C27.65 41.47 27.03 39.93 26.85 38.18C26.78 37.49 26.77 36.79 26.79 36.1C26.82 34.19 25.35 33.56 23.88 33.77C22.83 33.92 21.93 34.38 21.21 35.17C21.05 35.35 20.8 35.49 20.61 35.32C20.49 35.21 20.44 34.92 20.48 34.75C20.9 33.17 21.88 32.08 23.41 31.49C24.43 31.09 25.49 30.87 26.59 30.87C27.6 30.87 28.6 30.88 29.61 30.88C29.77 30.88 29.87 30.9 29.93 31.08C30.22 31.86 30.72 32.22 31.46 32.2C32.16 32.18 32.65 31.77 32.89 31C32.9 30.97 32.91 30.94 32.93 30.89C33.63 30.89 34.35 30.88 35.06 30.9C35.36 30.91 35.57 31.21 35.58 31.61C35.59 32.41 35.58 33.21 35.58 34.01C35.58 34.5 35.58 34.98 35.58 35.47C35.58 35.92 35.39 36.34 34.75 36.3C34.15 36.27 33.55 36.29 32.93 36.29C32.9 36.19 32.87 36.09 32.84 36C32.62 35.31 31.93 34.88 31.19 34.97C30.51 35.05 29.91 35.65 29.88 36.35C29.78 38.5 30.27 40.5 31.46 42.3C31.95 43.05 32.58 43.68 33.32 44.2C33.37 44.21 33.41 44.25 33.49 44.31Z" fill="#F16522"/>
<path d="M67.73 16.96C69.23 15.32 70.73 13.69 72.27 12.01C76.1 16.3 79.9 20.55 83.76 24.86C83.59 24.88 83.49 24.9 83.38 24.9C81.67 24.9 79.96 24.9 78.25 24.91C77.98 24.91 77.92 24.82 77.92 24.57C77.94 23.89 77.94 23.2 77.92 22.52C77.91 22.35 77.84 22.15 77.73 22.02C76.95 21.14 76.16 20.28 75.37 19.42C74.05 18 72.73 16.59 71.41 15.17C71.29 15.04 71.18 14.91 71.08 14.76C70.92 14.53 70.78 14.54 70.57 14.71C69.74 15.41 68.89 16.09 68.05 16.78C67.96 16.86 67.85 16.92 67.75 16.99C67.74 16.98 67.73 16.97 67.73 16.96Z" fill="#F58A1F"/>
<path d="M46.52 24.84C46.68 24.65 46.8 24.5 46.93 24.36C48.3 22.81 49.67 21.25 51.04 19.7C51.71 18.95 52.38 18.2 53.06 17.46C53.37 17.12 53.7 16.79 54.02 16.45C54.13 16.33 54.22 16.29 54.35 16.43C55.6 17.73 56.84 19.03 58.09 20.33C58.12 20.37 58.16 20.4 58.15 20.49C57.96 20.34 57.76 20.19 57.57 20.04C56.85 19.47 56.13 18.89 55.41 18.31C55.23 18.16 55.11 18.26 54.99 18.39C54.5 18.92 54 19.45 53.5 19.98C52.77 20.75 52.04 21.5 51.31 22.27C51.08 22.52 50.86 22.78 50.66 23.06C50.6 23.14 50.57 23.27 50.57 23.38C50.56 23.79 50.57 24.21 50.57 24.62C50.57 24.78 50.54 24.91 50.33 24.9C49.12 24.9 47.9 24.9 46.69 24.89C46.67 24.9 46.63 24.88 46.52 24.84Z" fill="#F58A1F"/>
<path d="M68.62 24.01C68.36 24.01 68.1 24 67.84 24.01C67.62 24.02 67.54 23.92 67.55 23.72C67.56 23.19 67.56 22.66 67.55 22.13C67.55 21.95 67.6 21.86 67.8 21.87C68.35 21.88 68.9 21.87 69.45 21.87C69.62 21.87 69.72 21.92 69.72 22.12C69.71 22.66 69.71 23.2 69.72 23.74C69.72 23.94 69.63 24.02 69.44 24.01C69.16 24.01 68.89 24.01 68.62 24.01Z" fill="#F58A1F"/>
<path d="M68.61 20.93C68.34 20.93 68.07 20.92 67.8 20.93C67.62 20.94 67.54 20.88 67.55 20.68C67.56 20.17 67.56 19.66 67.55 19.16C67.55 18.95 67.62 18.86 67.84 18.86C68.37 18.87 68.9 18.87 69.42 18.86C69.63 18.86 69.72 18.94 69.71 19.16C69.7 19.66 69.7 20.15 69.71 20.65C69.71 20.85 69.65 20.93 69.45 20.93C69.17 20.92 68.89 20.93 68.61 20.93Z" fill="#F58A1F"/>
<path d="M72.61 22.94C72.61 23.22 72.61 23.5 72.61 23.78C72.61 23.94 72.55 24.02 72.37 24.02C71.85 24.01 71.33 24.03 70.82 24.01C70.74 24.01 70.6 23.89 70.59 23.82C70.57 23.24 70.57 22.66 70.59 22.08C70.59 22.01 70.72 21.89 70.79 21.89C71.33 21.87 71.87 21.89 72.4 21.88C72.57 21.88 72.61 21.95 72.61 22.11C72.6 22.38 72.61 22.66 72.61 22.94Z" fill="#F58A1F"/>
<path d="M72.61 19.92C72.61 20.18 72.6 20.44 72.61 20.7C72.62 20.87 72.55 20.94 72.38 20.94C71.85 20.94 71.32 20.95 70.8 20.93C70.72 20.93 70.59 20.79 70.59 20.72C70.57 20.18 70.58 19.64 70.58 19.11C70.58 18.93 70.66 18.88 70.83 18.88C71.35 18.89 71.86 18.89 72.38 18.88C72.56 18.88 72.62 18.95 72.62 19.12C72.6 19.38 72.61 19.65 72.61 19.92Z" fill="#F58A1F"/>
<path d="M55.8 24.16C55.8 23.79 55.79 23.45 55.81 23.11C55.81 23.04 55.94 22.93 56.01 22.92C56.98 22.83 57.1 22.95 57 23.93C56.98 24.1 56.92 24.17 56.75 24.17C56.46 24.16 56.16 24.16 55.8 24.16Z" fill="#F58A1F"/>
<path d="M54.61 24.17C53.96 24.16 54.02 24.28 54.02 23.57C54.02 22.76 54.01 22.93 54.66 22.92C55.27 22.91 55.24 22.83 55.23 23.51C55.23 23.52 55.23 23.53 55.23 23.54C55.24 24.27 55.3 24.16 54.61 24.17Z" fill="#F58A1F"/>
<path d="M57 21.65C57 22.28 57 22.28 56.36 22.28C55.79 22.28 55.79 22.28 55.79 21.69C55.79 21.06 55.79 21.06 56.41 21.06C56.42 21.06 56.43 21.06 56.44 21.06C57.09 21.08 57 21 57 21.65Z" fill="#F58A1F"/>
<path d="M55.24 21.71C55.23 22.31 55.37 22.29 54.66 22.28C53.93 22.27 54.03 22.39 54.03 21.64C54.03 20.97 53.98 21.07 54.61 21.07C55.24 21.07 55.24 21.07 55.24 21.71Z" fill="#F58A1F"/>
<path d="M7.04753 56.1527V49.7153H7.82706V52.582H11.2595V49.7153H12.039V56.1527H11.2595V53.2735H7.82706V56.1527H7.04753ZM19.0312 52.934C19.0312 53.613 18.9086 54.1997 18.6634 54.6942C18.4182 55.1888 18.0819 55.5702 17.6544 55.8384C17.227 56.1066 16.7387 56.2407 16.1897 56.2407C15.6407 56.2407 15.1524 56.1066 14.7249 55.8384C14.2974 55.5702 13.9611 55.1888 13.7159 54.6942C13.4708 54.1997 13.3482 53.613 13.3482 52.934C13.3482 52.2551 13.4708 51.6683 13.7159 51.1738C13.9611 50.6793 14.2974 50.2979 14.7249 50.0297C15.1524 49.7614 15.6407 49.6273 16.1897 49.6273C16.7387 49.6273 17.227 49.7614 17.6544 50.0297C18.0819 50.2979 18.4182 50.6793 18.6634 51.1738C18.9086 51.6683 19.0312 52.2551 19.0312 52.934ZM18.2768 52.934C18.2768 52.3766 18.1836 51.9062 17.9971 51.5227C17.8126 51.1392 17.5622 50.849 17.2458 50.652C16.9315 50.455 16.5794 50.3566 16.1897 50.3566C15.7999 50.3566 15.4468 50.455 15.1304 50.652C14.8161 50.849 14.5657 51.1392 14.3792 51.5227C14.1948 51.9062 14.1026 52.3766 14.1026 52.934C14.1026 53.4914 14.1948 53.9619 14.3792 54.3453C14.5657 54.7288 14.8161 55.019 15.1304 55.216C15.4468 55.413 15.7999 55.5115 16.1897 55.5115C16.5794 55.5115 16.9315 55.413 17.2458 55.216C17.5622 55.019 17.8126 54.7288 17.9971 54.3453C18.1836 53.9619 18.2768 53.4914 18.2768 52.934ZM20.3419 49.7153H21.2723L23.46 55.0589H23.5355L25.7232 49.7153H26.6536V56.1527H25.9243V51.2618H25.8615L23.8498 56.1527H23.1457L21.134 51.2618H21.0712V56.1527H20.3419V49.7153ZM28.2166 56.1527V49.7153H32.1016V50.4068H28.9961V52.582H31.9004V53.2735H28.9961V55.4612H32.1519V56.1527H28.2166ZM36.7756 49.7153V56.1527H35.9961V49.7153H36.7756ZM38.3386 49.7153H39.269L41.4567 55.0589H41.5322L43.7199 49.7153H44.6503V56.1527H43.921V51.2618H43.8582L41.8465 56.1527H41.1424L39.1307 51.2618H39.0679V56.1527H38.3386V49.7153ZM46.2133 56.1527V49.7153H48.3884C48.8934 49.7153 49.3062 49.8065 49.6268 49.9888C49.9495 50.169 50.1884 50.4131 50.3435 50.7212C50.4986 51.0292 50.5761 51.3729 50.5761 51.7522C50.5761 52.1314 50.4986 52.4762 50.3435 52.7863C50.1905 53.0964 49.9537 53.3437 49.6331 53.5281C49.3125 53.7104 48.9018 53.8016 48.401 53.8016H46.8419V53.11H48.3758C48.7216 53.11 48.9992 53.0503 49.2088 52.9309C49.4183 52.8114 49.5702 52.6501 49.6645 52.4468C49.7609 52.2415 49.8091 52.0099 49.8091 51.7522C49.8091 51.4944 49.7609 51.2639 49.6645 51.0606C49.5702 50.8574 49.4173 50.6981 49.2056 50.5829C48.994 50.4655 48.7132 50.4068 48.3632 50.4068H46.9928V56.1527H46.2133ZM51.8318 56.1527V49.7153H54.0069C54.5099 49.7153 54.9227 49.8012 55.2454 49.9731C55.5681 50.1428 55.807 50.3765 55.962 50.674C56.1171 50.9716 56.1947 51.31 56.1947 51.6893C56.1947 52.0686 56.1171 52.4049 55.962 52.6983C55.807 52.9916 55.5691 53.2222 55.2485 53.3898C54.9279 53.5553 54.5182 53.6381 54.0195 53.6381H52.2593V52.934H53.9944C54.338 52.934 54.6146 52.8837 54.8242 52.7831C55.0358 52.6826 55.1888 52.5401 55.2831 52.3557C55.3795 52.1692 55.4277 51.947 55.4277 51.6893C55.4277 51.4315 55.3795 51.2063 55.2831 51.0135C55.1867 50.8207 55.0327 50.6719 54.821 50.5671C54.6094 50.4603 54.3297 50.4068 53.9818 50.4068H52.6113V56.1527H51.8318ZM54.8619 53.2609L56.4461 56.1527H55.5409L53.9818 53.2609H54.8619ZM62.9251 52.934C62.9251 53.613 62.8026 54.1997 62.5574 54.6942C62.3122 55.1888 61.9759 55.5702 61.5484 55.8384C61.1209 56.1066 60.6327 56.2407 60.0836 56.2407C59.5346 56.2407 59.0464 56.1066 58.6189 55.8384C58.1914 55.5702 57.8551 55.1888 57.6099 54.6942C57.3647 54.1997 57.2421 53.613 57.2421 52.934C57.2421 52.2551 57.3647 51.6683 57.6099 51.1738C57.8551 50.6793 58.1914 50.2979 58.6189 50.0297C59.0464 49.7614 59.5346 49.6273 60.0836 49.6273C60.6327 49.6273 61.1209 49.7614 61.5484 50.0297C61.9759 50.2979 62.3122 50.6793 62.5574 51.1738C62.8026 51.6683 62.9251 52.2551 62.9251 52.934ZM62.1708 52.934C62.1708 52.3766 62.0775 51.9062 61.891 51.5227C61.7066 51.1392 61.4562 50.849 61.1398 50.652C60.8254 50.455 60.4734 50.3566 60.0836 50.3566C59.6939 50.3566 59.3408 50.455 59.0244 50.652C58.71 50.849 58.4596 51.1392 58.2731 51.5227C58.0887 51.9062 57.9965 52.3766 57.9965 52.934C57.9965 53.4914 58.0887 53.9619 58.2731 54.3453C58.4596 54.7288 58.71 55.019 59.0244 55.216C59.3408 55.413 59.6939 55.5115 60.0836 55.5115C60.4734 55.5115 60.8254 55.413 61.1398 55.216C61.4562 55.019 61.7066 54.7288 61.891 54.3453C62.0775 53.9619 62.1708 53.4914 62.1708 52.934ZM64.1974 49.7153L66.1085 55.1343H66.1839L68.095 49.7153H68.9123L66.5485 56.1527H65.7439L63.3801 49.7153H64.1974ZM69.9149 56.1527V49.7153H73.8V50.4068H70.6945V52.582H73.5988V53.2735H70.6945V55.4612H73.8503V56.1527H69.9149ZM75.205 49.7153H76.1354L78.3231 55.0589H78.3986L80.5863 49.7153H81.5167V56.1527H80.7875V51.2618H80.7246L78.7129 56.1527H78.0088L75.9971 51.2618H75.9343V56.1527H75.205V49.7153ZM83.0797 56.1527V49.7153H86.9647V50.4068H83.8592V52.582H86.7636V53.2735H83.8592V55.4612H87.015V56.1527H83.0797ZM93.4744 49.7153V56.1527H92.72L89.2122 51.0984H89.1493V56.1527H88.3698V49.7153H89.1242L92.6446 54.7823H92.7075V49.7153H93.4744ZM94.6822 50.4068V49.7153H99.5102V50.4068H97.486V56.1527H96.7065V50.4068H94.6822Z" fill="white"/>
</svg>
